<mxfile host="app.diagrams.net" agent="Mozilla/5.0 (Windows NT 10.0; Win64; x64) AppleWebKit/537.36 (KHTML, like Gecko) Chrome/141.0.0.0 Safari/537.36" version="28.2.7">
  <diagram name="Page-1" id="p7Vepmeb_bepWlEUFjfH">
    <mxGraphModel dx="1412" dy="737" grid="1" gridSize="10" guides="1" tooltips="1" connect="1" arrows="1" fold="1" page="1" pageScale="1" pageWidth="850" pageHeight="1100" math="0" shadow="0">
      <root>
        <mxCell id="0" />
        <mxCell id="1" parent="0" />
        <mxCell id="KL8aRXO-pgAZ8DTHxNWf-14" value="" style="endArrow=none;html=1;rounded=0;entryX=0;entryY=0.5;entryDx=0;entryDy=0;exitX=1;exitY=0.5;exitDx=0;exitDy=0;strokeWidth=5;strokeColor=light-dark(#000000,#99FFFF);" edge="1" parent="1" source="KL8aRXO-pgAZ8DTHxNWf-1" target="KL8aRXO-pgAZ8DTHxNWf-18">
          <mxGeometry width="50" height="50" relative="1" as="geometry">
            <mxPoint x="500" y="318" as="sourcePoint" />
            <mxPoint x="540" y="180" as="targetPoint" />
          </mxGeometry>
        </mxCell>
        <mxCell id="KL8aRXO-pgAZ8DTHxNWf-15" value="Production Configuration" style="text;html=1;whiteSpace=wrap;strokeColor=none;fillColor=none;align=center;verticalAlign=middle;rounded=0;" vertex="1" parent="1">
          <mxGeometry x="380" y="40" width="170" height="30" as="geometry" />
        </mxCell>
        <mxCell id="KL8aRXO-pgAZ8DTHxNWf-16" value="" style="group" vertex="1" connectable="0" parent="1">
          <mxGeometry x="180" y="120" width="200" height="145" as="geometry" />
        </mxCell>
        <mxCell id="KL8aRXO-pgAZ8DTHxNWf-1" value="et-0/0/51" style="rounded=0;whiteSpace=wrap;html=1;" vertex="1" parent="KL8aRXO-pgAZ8DTHxNWf-16">
          <mxGeometry x="80" y="25" width="120" height="60" as="geometry" />
        </mxCell>
        <mxCell id="KL8aRXO-pgAZ8DTHxNWf-2" value="et-0/0/54" style="rounded=0;whiteSpace=wrap;html=1;" vertex="1" parent="KL8aRXO-pgAZ8DTHxNWf-16">
          <mxGeometry x="80" y="85" width="120" height="60" as="geometry" />
        </mxCell>
        <mxCell id="KL8aRXO-pgAZ8DTHxNWf-3" value="" style="shape=mxgraph.cisco.directors.localdirector;sketch=0;html=1;pointerEvents=1;dashed=0;fillColor=#036897;strokeColor=#ffffff;strokeWidth=2;verticalLabelPosition=bottom;verticalAlign=top;align=center;outlineConnect=0;" vertex="1" parent="KL8aRXO-pgAZ8DTHxNWf-16">
          <mxGeometry x="2" y="45" width="78" height="80" as="geometry" />
        </mxCell>
        <mxCell id="KL8aRXO-pgAZ8DTHxNWf-8" value="EX4650 Member 0" style="swimlane;whiteSpace=wrap;html=1;" vertex="1" parent="KL8aRXO-pgAZ8DTHxNWf-16">
          <mxGeometry width="200" height="145" as="geometry" />
        </mxCell>
        <mxCell id="KL8aRXO-pgAZ8DTHxNWf-17" value="" style="group" vertex="1" connectable="0" parent="1">
          <mxGeometry x="550" y="120" width="200" height="145" as="geometry" />
        </mxCell>
        <mxCell id="KL8aRXO-pgAZ8DTHxNWf-20" value="" style="shape=mxgraph.cisco.directors.localdirector;sketch=0;html=1;pointerEvents=1;dashed=0;fillColor=#036897;strokeColor=#ffffff;strokeWidth=2;verticalLabelPosition=bottom;verticalAlign=top;align=center;outlineConnect=0;" vertex="1" parent="KL8aRXO-pgAZ8DTHxNWf-17">
          <mxGeometry x="122" y="45" width="78" height="80" as="geometry" />
        </mxCell>
        <mxCell id="KL8aRXO-pgAZ8DTHxNWf-21" value="EX4650 Member 1" style="swimlane;whiteSpace=wrap;html=1;" vertex="1" parent="KL8aRXO-pgAZ8DTHxNWf-17">
          <mxGeometry width="200" height="145" as="geometry" />
        </mxCell>
        <mxCell id="KL8aRXO-pgAZ8DTHxNWf-18" value="et-0/0/51" style="rounded=0;whiteSpace=wrap;html=1;" vertex="1" parent="KL8aRXO-pgAZ8DTHxNWf-21">
          <mxGeometry y="25" width="120" height="60" as="geometry" />
        </mxCell>
        <mxCell id="KL8aRXO-pgAZ8DTHxNWf-19" value="et-0/0/54" style="rounded=0;whiteSpace=wrap;html=1;" vertex="1" parent="KL8aRXO-pgAZ8DTHxNWf-21">
          <mxGeometry y="85" width="120" height="60" as="geometry" />
        </mxCell>
        <mxCell id="KL8aRXO-pgAZ8DTHxNWf-22" value="" style="endArrow=none;html=1;rounded=0;entryX=0;entryY=0.5;entryDx=0;entryDy=0;exitX=1;exitY=0.5;exitDx=0;exitDy=0;strokeWidth=5;strokeColor=light-dark(#000000,#99CCFF);" edge="1" parent="1" source="KL8aRXO-pgAZ8DTHxNWf-2" target="KL8aRXO-pgAZ8DTHxNWf-19">
          <mxGeometry width="50" height="50" relative="1" as="geometry">
            <mxPoint x="400" y="370" as="sourcePoint" />
            <mxPoint x="450" y="320" as="targetPoint" />
          </mxGeometry>
        </mxCell>
        <mxCell id="KL8aRXO-pgAZ8DTHxNWf-23" value="Configuration during outage" style="text;html=1;whiteSpace=wrap;strokeColor=none;fillColor=none;align=center;verticalAlign=middle;rounded=0;" vertex="1" parent="1">
          <mxGeometry x="367.5" y="340" width="195" height="40" as="geometry" />
        </mxCell>
        <mxCell id="KL8aRXO-pgAZ8DTHxNWf-24" value="" style="group" vertex="1" connectable="0" parent="1">
          <mxGeometry x="180" y="390" width="200" height="145" as="geometry" />
        </mxCell>
        <mxCell id="KL8aRXO-pgAZ8DTHxNWf-25" value="et-0/0/51" style="rounded=0;whiteSpace=wrap;html=1;" vertex="1" parent="KL8aRXO-pgAZ8DTHxNWf-24">
          <mxGeometry x="80" y="25" width="120" height="60" as="geometry" />
        </mxCell>
        <mxCell id="KL8aRXO-pgAZ8DTHxNWf-26" value="et-0/0/54" style="rounded=0;whiteSpace=wrap;html=1;" vertex="1" parent="KL8aRXO-pgAZ8DTHxNWf-24">
          <mxGeometry x="80" y="85" width="120" height="60" as="geometry" />
        </mxCell>
        <mxCell id="KL8aRXO-pgAZ8DTHxNWf-27" value="" style="shape=mxgraph.cisco.directors.localdirector;sketch=0;html=1;pointerEvents=1;dashed=0;fillColor=#036897;strokeColor=#ffffff;strokeWidth=2;verticalLabelPosition=bottom;verticalAlign=top;align=center;outlineConnect=0;" vertex="1" parent="KL8aRXO-pgAZ8DTHxNWf-24">
          <mxGeometry x="2" y="45" width="78" height="80" as="geometry" />
        </mxCell>
        <mxCell id="KL8aRXO-pgAZ8DTHxNWf-28" value="EX4650 Member 0" style="swimlane;whiteSpace=wrap;html=1;" vertex="1" parent="KL8aRXO-pgAZ8DTHxNWf-24">
          <mxGeometry width="200" height="145" as="geometry" />
        </mxCell>
        <mxCell id="KL8aRXO-pgAZ8DTHxNWf-34" value="" style="group" vertex="1" connectable="0" parent="1">
          <mxGeometry x="180" y="610" width="200" height="145" as="geometry" />
        </mxCell>
        <mxCell id="KL8aRXO-pgAZ8DTHxNWf-35" value="et-0/0/51" style="rounded=0;whiteSpace=wrap;html=1;" vertex="1" parent="KL8aRXO-pgAZ8DTHxNWf-34">
          <mxGeometry x="80" y="25" width="120" height="60" as="geometry" />
        </mxCell>
        <mxCell id="KL8aRXO-pgAZ8DTHxNWf-36" value="et-0/0/54" style="rounded=0;whiteSpace=wrap;html=1;" vertex="1" parent="KL8aRXO-pgAZ8DTHxNWf-34">
          <mxGeometry x="80" y="85" width="120" height="60" as="geometry" />
        </mxCell>
        <mxCell id="KL8aRXO-pgAZ8DTHxNWf-37" value="" style="shape=mxgraph.cisco.directors.localdirector;sketch=0;html=1;pointerEvents=1;dashed=0;fillColor=#036897;strokeColor=#ffffff;strokeWidth=2;verticalLabelPosition=bottom;verticalAlign=top;align=center;outlineConnect=0;" vertex="1" parent="KL8aRXO-pgAZ8DTHxNWf-34">
          <mxGeometry x="2" y="45" width="78" height="80" as="geometry" />
        </mxCell>
        <mxCell id="KL8aRXO-pgAZ8DTHxNWf-38" value="EX4650 Member 2" style="swimlane;whiteSpace=wrap;html=1;" vertex="1" parent="KL8aRXO-pgAZ8DTHxNWf-34">
          <mxGeometry width="200" height="145" as="geometry" />
        </mxCell>
        <mxCell id="KL8aRXO-pgAZ8DTHxNWf-45" value="" style="group" vertex="1" connectable="0" parent="1">
          <mxGeometry x="570" y="390" width="200" height="145" as="geometry" />
        </mxCell>
        <mxCell id="KL8aRXO-pgAZ8DTHxNWf-46" value="" style="shape=mxgraph.cisco.directors.localdirector;sketch=0;html=1;pointerEvents=1;dashed=0;fillColor=#036897;strokeColor=#ffffff;strokeWidth=2;verticalLabelPosition=bottom;verticalAlign=top;align=center;outlineConnect=0;" vertex="1" parent="KL8aRXO-pgAZ8DTHxNWf-45">
          <mxGeometry x="122" y="45" width="78" height="80" as="geometry" />
        </mxCell>
        <mxCell id="KL8aRXO-pgAZ8DTHxNWf-47" value="EX4650 Member 1" style="swimlane;whiteSpace=wrap;html=1;" vertex="1" parent="KL8aRXO-pgAZ8DTHxNWf-45">
          <mxGeometry width="200" height="145" as="geometry" />
        </mxCell>
        <mxCell id="KL8aRXO-pgAZ8DTHxNWf-48" value="et-0/0/51" style="rounded=0;whiteSpace=wrap;html=1;" vertex="1" parent="KL8aRXO-pgAZ8DTHxNWf-47">
          <mxGeometry y="25" width="120" height="60" as="geometry" />
        </mxCell>
        <mxCell id="KL8aRXO-pgAZ8DTHxNWf-49" value="et-0/0/54" style="rounded=0;whiteSpace=wrap;html=1;" vertex="1" parent="KL8aRXO-pgAZ8DTHxNWf-47">
          <mxGeometry y="85" width="120" height="60" as="geometry" />
        </mxCell>
        <mxCell id="KL8aRXO-pgAZ8DTHxNWf-50" value="" style="group" vertex="1" connectable="0" parent="1">
          <mxGeometry x="570" y="610" width="200" height="145" as="geometry" />
        </mxCell>
        <mxCell id="KL8aRXO-pgAZ8DTHxNWf-51" value="" style="shape=mxgraph.cisco.directors.localdirector;sketch=0;html=1;pointerEvents=1;dashed=0;fillColor=#036897;strokeColor=#ffffff;strokeWidth=2;verticalLabelPosition=bottom;verticalAlign=top;align=center;outlineConnect=0;" vertex="1" parent="KL8aRXO-pgAZ8DTHxNWf-50">
          <mxGeometry x="122" y="45" width="78" height="80" as="geometry" />
        </mxCell>
        <mxCell id="KL8aRXO-pgAZ8DTHxNWf-52" value="EX4650 Member 3" style="swimlane;whiteSpace=wrap;html=1;" vertex="1" parent="KL8aRXO-pgAZ8DTHxNWf-50">
          <mxGeometry width="200" height="145" as="geometry" />
        </mxCell>
        <mxCell id="KL8aRXO-pgAZ8DTHxNWf-53" value="et-0/0/51" style="rounded=0;whiteSpace=wrap;html=1;" vertex="1" parent="KL8aRXO-pgAZ8DTHxNWf-52">
          <mxGeometry y="25" width="120" height="60" as="geometry" />
        </mxCell>
        <mxCell id="KL8aRXO-pgAZ8DTHxNWf-54" value="et-0/0/54" style="rounded=0;whiteSpace=wrap;html=1;" vertex="1" parent="KL8aRXO-pgAZ8DTHxNWf-52">
          <mxGeometry y="85" width="120" height="60" as="geometry" />
        </mxCell>
        <mxCell id="KL8aRXO-pgAZ8DTHxNWf-56" value="" style="endArrow=none;html=1;rounded=0;entryX=0;entryY=0.5;entryDx=0;entryDy=0;exitX=1;exitY=0.5;exitDx=0;exitDy=0;strokeWidth=5;strokeColor=light-dark(#000000,#99FFFF);" edge="1" parent="1" source="KL8aRXO-pgAZ8DTHxNWf-25" target="KL8aRXO-pgAZ8DTHxNWf-48">
          <mxGeometry width="50" height="50" relative="1" as="geometry">
            <mxPoint x="390" y="440" as="sourcePoint" />
            <mxPoint x="560" y="440" as="targetPoint" />
          </mxGeometry>
        </mxCell>
        <mxCell id="KL8aRXO-pgAZ8DTHxNWf-57" value="" style="endArrow=none;html=1;rounded=0;entryX=0;entryY=0.5;entryDx=0;entryDy=0;exitX=1;exitY=0.75;exitDx=0;exitDy=0;strokeWidth=5;strokeColor=light-dark(#000000,#99FFFF);" edge="1" parent="1" source="KL8aRXO-pgAZ8DTHxNWf-38" target="KL8aRXO-pgAZ8DTHxNWf-49">
          <mxGeometry width="50" height="50" relative="1" as="geometry">
            <mxPoint x="400" y="570" as="sourcePoint" />
            <mxPoint x="570" y="570" as="targetPoint" />
          </mxGeometry>
        </mxCell>
        <mxCell id="KL8aRXO-pgAZ8DTHxNWf-58" value="" style="endArrow=none;html=1;rounded=0;entryX=0;entryY=0.5;entryDx=0;entryDy=0;exitX=1;exitY=0.5;exitDx=0;exitDy=0;strokeWidth=5;strokeColor=light-dark(#000000,#99FFFF);" edge="1" parent="1" source="KL8aRXO-pgAZ8DTHxNWf-35" target="KL8aRXO-pgAZ8DTHxNWf-53">
          <mxGeometry width="50" height="50" relative="1" as="geometry">
            <mxPoint x="550" y="904" as="sourcePoint" />
            <mxPoint x="740" y="690" as="targetPoint" />
          </mxGeometry>
        </mxCell>
        <mxCell id="KL8aRXO-pgAZ8DTHxNWf-59" value="" style="endArrow=none;html=1;rounded=0;entryX=0;entryY=0.5;entryDx=0;entryDy=0;exitX=1;exitY=0.5;exitDx=0;exitDy=0;strokeWidth=5;strokeColor=light-dark(#000000,#99FFFF);" edge="1" parent="1" source="KL8aRXO-pgAZ8DTHxNWf-62" target="KL8aRXO-pgAZ8DTHxNWf-69">
          <mxGeometry width="50" height="50" relative="1" as="geometry">
            <mxPoint x="510" y="1088" as="sourcePoint" />
            <mxPoint x="550" y="950" as="targetPoint" />
          </mxGeometry>
        </mxCell>
        <mxCell id="KL8aRXO-pgAZ8DTHxNWf-60" value="Configuration during &quot;Request Support Information&quot;" style="text;html=1;whiteSpace=wrap;strokeColor=none;fillColor=none;align=center;verticalAlign=middle;rounded=0;" vertex="1" parent="1">
          <mxGeometry x="295" y="820" width="340" height="30" as="geometry" />
        </mxCell>
        <mxCell id="KL8aRXO-pgAZ8DTHxNWf-61" value="" style="group" vertex="1" connectable="0" parent="1">
          <mxGeometry x="190" y="890" width="200" height="145" as="geometry" />
        </mxCell>
        <mxCell id="KL8aRXO-pgAZ8DTHxNWf-62" value="et-0/0/51" style="rounded=0;whiteSpace=wrap;html=1;" vertex="1" parent="KL8aRXO-pgAZ8DTHxNWf-61">
          <mxGeometry x="80" y="25" width="120" height="60" as="geometry" />
        </mxCell>
        <mxCell id="KL8aRXO-pgAZ8DTHxNWf-63" value="et-0/0/54" style="rounded=0;whiteSpace=wrap;html=1;" vertex="1" parent="KL8aRXO-pgAZ8DTHxNWf-61">
          <mxGeometry x="80" y="85" width="120" height="60" as="geometry" />
        </mxCell>
        <mxCell id="KL8aRXO-pgAZ8DTHxNWf-64" value="" style="shape=mxgraph.cisco.directors.localdirector;sketch=0;html=1;pointerEvents=1;dashed=0;fillColor=#036897;strokeColor=#ffffff;strokeWidth=2;verticalLabelPosition=bottom;verticalAlign=top;align=center;outlineConnect=0;" vertex="1" parent="KL8aRXO-pgAZ8DTHxNWf-61">
          <mxGeometry x="2" y="45" width="78" height="80" as="geometry" />
        </mxCell>
        <mxCell id="KL8aRXO-pgAZ8DTHxNWf-65" value="EX4650 Member 0" style="swimlane;whiteSpace=wrap;html=1;" vertex="1" parent="KL8aRXO-pgAZ8DTHxNWf-61">
          <mxGeometry width="200" height="145" as="geometry" />
        </mxCell>
        <mxCell id="KL8aRXO-pgAZ8DTHxNWf-66" value="" style="group" vertex="1" connectable="0" parent="1">
          <mxGeometry x="560" y="890" width="200" height="145" as="geometry" />
        </mxCell>
        <mxCell id="KL8aRXO-pgAZ8DTHxNWf-67" value="" style="shape=mxgraph.cisco.directors.localdirector;sketch=0;html=1;pointerEvents=1;dashed=0;fillColor=#036897;strokeColor=#ffffff;strokeWidth=2;verticalLabelPosition=bottom;verticalAlign=top;align=center;outlineConnect=0;" vertex="1" parent="KL8aRXO-pgAZ8DTHxNWf-66">
          <mxGeometry x="122" y="45" width="78" height="80" as="geometry" />
        </mxCell>
        <mxCell id="KL8aRXO-pgAZ8DTHxNWf-68" value="EX4650 Member 1" style="swimlane;whiteSpace=wrap;html=1;" vertex="1" parent="KL8aRXO-pgAZ8DTHxNWf-66">
          <mxGeometry width="200" height="145" as="geometry" />
        </mxCell>
        <mxCell id="KL8aRXO-pgAZ8DTHxNWf-69" value="et-0/0/51" style="rounded=0;whiteSpace=wrap;html=1;" vertex="1" parent="KL8aRXO-pgAZ8DTHxNWf-68">
          <mxGeometry y="25" width="120" height="60" as="geometry" />
        </mxCell>
        <mxCell id="KL8aRXO-pgAZ8DTHxNWf-70" value="et-0/0/54" style="rounded=0;whiteSpace=wrap;html=1;" vertex="1" parent="KL8aRXO-pgAZ8DTHxNWf-68">
          <mxGeometry y="85" width="120" height="60" as="geometry" />
        </mxCell>
      </root>
    </mxGraphModel>
  </diagram>
</mxfile>
